<?xml version="1.0" encoding="UTF-8"?>
<svg width="32px" height="32px" viewBox="0 0 32 32" version="1.1" xmlns="http://www.w3.org/2000/svg" xmlns:xlink="http://www.w3.org/1999/xlink">
    <!-- Generator: Sketch 58 (84663) - https://sketch.com -->
    <title>Share on Facebook</title>
    <defs>
        <polygon id="path-1" points="0.0017578125 0.001171875 30 0.001171875 30 29.8177734 0.0017578125 29.8177734"></polygon>
    </defs>
    <g id="social/facebook" stroke="none" stroke-width="1" fill="none" fill-rule="evenodd">
        <g id="f_logo_RGB-Blue_1024" transform="translate(1.000000, 1.000000)">
            <g id="Group-3">
                <mask id="mask-2" fill="white">
                    <use xlink:href="#path-1"></use>
                </mask>
                <g id="Clip-2"></g>
                <path d="M30,15 C30,6.71572266 23.2842773,0 15,0 C6.71572266,0 0,6.71572266 0,15 C0,22.4869336 5.4852832,28.6924805 12.65625,29.8177734 L12.65625,19.3359375 L8.84765625,19.3359375 L8.84765625,15 L12.65625,15 L12.65625,11.6953125 C12.65625,7.9359375 14.8956445,5.859375 18.3219727,5.859375 C19.9630957,5.859375 21.6796875,6.15234375 21.6796875,6.15234375 L21.6796875,9.84375 L19.7882227,9.84375 C17.9248535,9.84375 17.34375,11 17.34375,12.1862402 L17.34375,15 L21.5039063,15 L20.8388672,19.3359375 L17.34375,19.3359375 L17.34375,29.8177734 C24.5147168,28.6924805 30,22.4869336 30,15" id="Fill-1" fill="#1877F2" mask="url(#mask-2)"></path>
            </g>
            <path d="M20.8388672,19.3359375 L21.5039062,15 L17.34375,15 L17.34375,12.1862402 C17.34375,11.0000098 17.9248535,9.84375 19.7882227,9.84375 L21.6796875,9.84375 L21.6796875,6.15234375 C21.6796875,6.15234375 19.9630957,5.859375 18.3219727,5.859375 C14.8956445,5.859375 12.65625,7.9359375 12.65625,11.6953125 L12.65625,15 L8.84765625,15 L8.84765625,19.3359375 L12.65625,19.3359375 L12.65625,29.8177734 C13.4199316,29.9375977 14.2026562,30 15,30 C15.7973437,30 16.5800684,29.9375977 17.34375,29.8177734 L17.34375,19.3359375 L20.8388672,19.3359375" id="Fill-4" fill="#FFFFFF"></path>
        </g>
    </g>
</svg>