<svg width="52" height="52" viewBox="0 0 52 52" xmlns="http://www.w3.org/2000/svg"><title>Share on Twitter</title><g fill="none" fill-rule="evenodd"><circle fill="#55ACEE" cx="26" cy="26" r="26"/><path d="M11 36.564c.497.062 1.004.094 1.517.094 2.979 0 5.72-1.073 7.897-2.873-2.783-.054-5.13-1.994-5.94-4.66a6.028 6.028 0 0 0 2.872-.114c-2.91-.617-5.101-3.329-5.101-6.58v-.084a6.083 6.083 0 0 0 2.88.84c-1.706-1.204-2.828-3.258-2.828-5.586 0-1.23.313-2.382.86-3.373 3.137 4.06 7.822 6.73 13.107 7.01a7.092 7.092 0 0 1-.165-1.528c0-3.706 2.847-6.71 6.359-6.71 1.829 0 3.481.815 4.641 2.119 1.449-.301 2.81-.86 4.038-1.628a6.679 6.679 0 0 1-2.796 3.712 12.199 12.199 0 0 0 3.652-1.057 13.343 13.343 0 0 1-3.173 3.474c.013.287.019.577.019.868 0 8.866-6.396 19.09-18.092 19.09-3.59 0-6.933-1.11-9.747-3.014z" fill="#FFF"/></g></svg>